<?xml version="1.0" encoding="UTF-8" standalone="no"?>
<!-- Created with Inkscape (http://www.inkscape.org/) -->

<svg
   width="100.54168mm"
   height="100.54168mm"
   viewBox="0 0 100.54168 100.54168"
   version="1.1"
   id="svg1"
   inkscape:export-filename="rect08.png"
   inkscape:export-xdpi="96"
   inkscape:export-ydpi="96"
   sodipodi:docname="rect08.svg"
   xmlns:inkscape="http://www.inkscape.org/namespaces/inkscape"
   xmlns:sodipodi="http://sodipodi.sourceforge.net/DTD/sodipodi-0.dtd"
   xmlns:xlink="http://www.w3.org/1999/xlink"
   xmlns="http://www.w3.org/2000/svg"
   xmlns:svg="http://www.w3.org/2000/svg">
  <sodipodi:namedview
     id="namedview1"
     pagecolor="#ffffff"
     bordercolor="#000000"
     borderopacity="0.25"
     inkscape:showpageshadow="2"
     inkscape:pageopacity="0.0"
     inkscape:pagecheckerboard="0"
     inkscape:deskcolor="#d1d1d1"
     inkscape:document-units="mm">
    <inkscape:page
       x="-4.7587954e-14"
       y="0"
       width="100.54167"
       height="100.54168"
       id="page2"
       margin="0"
       bleed="0" />
  </sodipodi:namedview>
  <defs
     id="defs1">
    <linearGradient
       inkscape:collect="always"
       xlink:href="#linearGradient2"
       id="linearGradient18"
       gradientUnits="userSpaceOnUse"
       gradientTransform="rotate(19.20217,277.74385,262.26488)"
       x1="49.212502"
       y1="130.70416"
       x2="149.75417"
       y2="130.70416" />
    <linearGradient
       id="linearGradient2"
       inkscape:collect="always">
      <stop
         style="stop-color:#191919;stop-opacity:1;"
         offset="0.51999998"
         id="stop2" />
      <stop
         style="stop-color:#3c3c3c;stop-opacity:0;"
         offset="1"
         id="stop3" />
    </linearGradient>
    <filter
       inkscape:collect="always"
       style="color-interpolation-filters:sRGB"
       id="filter6"
       x="-0.026406525"
       y="-0.025973096"
       width="1.052813"
       height="1.0519462">
      <feGaussianBlur
         inkscape:collect="always"
         stdDeviation="0.99885951"
         id="feGaussianBlur6" />
    </filter>
    <radialGradient
       inkscape:collect="always"
       xlink:href="#linearGradient6"
       id="radialGradient18"
       gradientUnits="userSpaceOnUse"
       gradientTransform="matrix(3.2974557,-0.01415188,-0.00610383,-1.42223,-184.84191,246.13173)"
       cx="102.51236"
       cy="84.597466"
       fx="102.51236"
       fy="84.597466"
       r="41.950409" />
    <linearGradient
       id="linearGradient6"
       inkscape:collect="always">
      <stop
         style="stop-color:#030303;stop-opacity:1;"
         offset="0"
         id="stop6" />
      <stop
         style="stop-color:#333333;stop-opacity:1"
         offset="1"
         id="stop7" />
    </linearGradient>
    <linearGradient
       inkscape:collect="always"
       xlink:href="#linearGradient4"
       id="linearGradient17"
       gradientUnits="userSpaceOnUse"
       gradientTransform="matrix(0.73596699,0,0,-0.73596699,77.262109,173.53769)"
       x1="125.13943"
       y1="180.69856"
       x2="87.083481"
       y2="106.00957" />
    <linearGradient
       id="linearGradient4"
       inkscape:collect="always">
      <stop
         style="stop-color:#ffffff;stop-opacity:1;"
         offset="0"
         id="stop4" />
      <stop
         style="stop-color:#ffffff;stop-opacity:0;"
         offset="1"
         id="stop5" />
    </linearGradient>
    <radialGradient
       inkscape:collect="always"
       xlink:href="#linearGradient6"
       id="radialGradient17"
       gradientUnits="userSpaceOnUse"
       gradientTransform="matrix(2.7137418,0.01164672,-0.00502333,1.1704676,-125.09542,-57.829049)"
       cx="102.51236"
       cy="84.597466"
       fx="102.51236"
       fy="84.597466"
       r="41.950409" />
  </defs>
  <g
     inkscape:label="Warstwa 1"
     inkscape:groupmode="layer"
     id="layer1"
     transform="translate(-102.90456,-28.052921)">
    <path
       id="path12"
       style="fill:url(#linearGradient18);stroke-width:0.34;stroke-dasharray:none"
       d="m 200.14565,95.927552 a 50.270832,50.270832 0 0 1 -64.00816,30.939778 50.270832,50.270832 0 0 1 -30.93977,-64.008168 50.270832,50.270832 0 0 1 64.00817,-30.93976 50.270832,50.270832 0 0 1 30.93976,64.00815 z"
       inkscape:transform-center-x="0.25185587"
       inkscape:transform-center-y="0.53480313"
       inkscape:export-filename="rect08.svg"
       inkscape:export-xdpi="96"
       inkscape:export-ydpi="96" />
    <path
       id="path13"
       style="mix-blend-mode:normal;fill:#66ff00;fill-opacity:1;stroke-width:0.331109;stroke-dasharray:none;filter:url(#filter6)"
       d="M 60.441586,113.42687 A 45.391502,46.148973 0 0 1 118.23703,85.023955 45.391502,46.148973 0 0 1 146.17375,143.78389 45.391502,46.148973 0 0 1 88.378304,172.1868 45.391502,46.148973 0 0 1 60.441586,113.42687 Z"
       inkscape:transform-center-x="-0.22432624"
       inkscape:transform-center-y="-0.48432088"
       transform="matrix(0.9864805,0,0,0.9864805,50.763189,-47.478749)" />
    <path
       id="path14"
       style="fill:url(#radialGradient18);stroke-width:0.295235;stroke-dasharray:none"
       d="m 193.89516,65.036082 a 43.652103,43.652103 0 0 0 -55.58076,-26.86619 43.652103,43.652103 0 0 0 -26.86619,55.58075 43.652103,43.652103 0 0 0 55.58077,26.866188 43.652103,43.652103 0 0 0 26.86618,-55.580748 z"
       inkscape:transform-center-x="0.21869689"
       inkscape:transform-center-y="-0.46438975" />
    <path
       id="path15"
       style="opacity:0.114213;fill:url(#linearGradient17);stroke-width:0.2576;stroke-dasharray:none"
       d="m 188.64025,66.866262 a 38.087607,38.087607 0 0 0 -48.49567,-23.44146 38.087607,38.087607 0 0 0 -23.44147,48.49566 38.087607,38.087607 0 0 0 48.49568,23.441468 38.087607,38.087607 0 0 0 23.44146,-48.495668 z"
       inkscape:transform-center-x="0.19081601"
       inkscape:transform-center-y="-0.40519152" />
    <path
       id="path16"
       style="fill:url(#radialGradient17);stroke-width:0.242973;stroke-dasharray:none"
       d="m 186.59779,91.209122 a 35.92483,35.92483 0 0 1 -45.74187,22.110348 35.92483,35.92483 0 0 1 -22.11035,-45.741868 35.92483,35.92483 0 0 1 45.74189,-22.11035 35.92483,35.92483 0 0 1 22.11033,45.74187 z"
       inkscape:transform-center-x="0.17998365"
       inkscape:transform-center-y="0.3821803" />
    <path
       id="path17"
       style="display:inline;fill:#66ff00;fill-opacity:0.803922;stroke:none;stroke-width:4.49792"
       d="m 151.49042,52.446852 h 2.36261 c 0.59148,0 1.06766,0.47617 1.06766,1.06765 v 24.80546 c 0,0.59148 -0.47618,1.06766 -1.06766,1.06766 h -2.36261 c -0.59148,0 -1.06765,-0.47618 -1.06765,-1.06766 v -24.80546 c 0,-0.59148 0.47617,-1.06765 1.06765,-1.06765 z m 10.3527,4.82986 v 4.90099 c 9.4056,4.57118 14.08265,15.51678 10.55594,25.64288 -3.80338,10.9205 -15.67684,16.660988 -26.59736,12.857608 -10.9205,-3.803388 -16.66099,-15.677348 -12.85761,-26.597858 1.89186,-5.43201 5.78112,-9.58199 10.55646,-11.91348 v -4.87567 c -6.69853,2.60283 -12.26261,8.00992 -14.80478,15.30914 -4.6029,13.21612 2.41084,27.723288 15.62695,32.326188 13.21614,4.60289 27.72176,-2.40929 32.32466,-15.625398 4.50667,-12.9398 -2.1208,-27.11703 -14.80426,-32.0244 z"
       inkscape:export-filename="rect09.svg"
       inkscape:export-xdpi="96"
       inkscape:export-ydpi="96" />
  </g>
</svg>
